<?xml version="1.0" encoding="utf-8"?>
<!-- Generator: Adobe Illustrator 24.0.1, SVG Export Plug-In . SVG Version: 6.00 Build 0)  -->
<svg version="1.1"
	 id="ic_piv" xmlns:cc="http://creativecommons.org/ns#" xmlns:dc="http://purl.org/dc/elements/1.1/" xmlns:inkscape="http://www.inkscape.org/namespaces/inkscape" xmlns:rdf="http://www.w3.org/1999/02/22-rdf-syntax-ns#" xmlns:sodipodi="http://sodipodi.sourceforge.net/DTD/sodipodi-0.dtd" xmlns:svg="http://www.w3.org/2000/svg"
	 xmlns="http://www.w3.org/2000/svg" xmlns:xlink="http://www.w3.org/1999/xlink" x="0px" y="0px" viewBox="0 0 24 24"
	 style="enable-background:new 0 0 24 24;" xml:space="preserve">
<style type="text/css">
	.st0{fill:none;}
	.st1{fill:#2E718C;stroke:#2E718C;stroke-width:1.077550e-03;}
</style>
<sodipodi:namedview  bordercolor="#666666" borderopacity="1" gridtolerance="10" guidetolerance="10" id="namedview17" inkscape:current-layer="ic_piv" inkscape:cx="9.1265306" inkscape:cy="15.804082" inkscape:document-rotation="0" inkscape:pagecheckerboard="0" inkscape:pageopacity="0" inkscape:pageshadow="2" inkscape:window-height="713" inkscape:window-maximized="1" inkscape:window-width="1299" inkscape:window-x="67" inkscape:window-y="27" inkscape:zoom="30.625" objecttolerance="10" pagecolor="#ffffff" showgrid="false">
	</sodipodi:namedview>
<path id="Rectangle_4543" class="st0" d="M0,0h24v24H0V0z"/>
<g>
	<defs>
		<polyline id="SVGID_1_" points="92.5,-64.7 -52.9,-64.7 -52.9,124.6 92.5,124.6 92.5,-64.7 		"/>
	</defs>
	<clipPath id="SVGID_2_">
		<use xlink:href="#SVGID_1_"  style="overflow:visible;"/>
	</clipPath>
	<g style="clip-path:url(#SVGID_2_);enable-background:new    ;">
		
			<image style="overflow:visible;" width="111" height="144" id="image848" xlink:href="9DF678CF.png"  transform="matrix(1.3333 0 0 1.3333 -54.19 125.9476)">
		</image>
	</g>
</g>
<g>
	<defs>
		<polyline id="SVGID_3_" points="95.6,-64.8 -49.8,-64.8 -49.8,124.5 95.6,124.5 95.6,-64.8 		"/>
	</defs>
	<clipPath id="SVGID_4_">
		<use xlink:href="#SVGID_3_"  style="overflow:visible;"/>
	</clipPath>
	<g style="clip-path:url(#SVGID_4_);enable-background:new    ;">
		
			<image style="overflow:visible;" width="111" height="144" id="image869" xlink:href="9DF678CD.png"  transform="matrix(1.3333 0 0 1.3333 -51.1043 125.8333)">
		</image>
	</g>
</g>
<path id="path64580" class="st1" d="M11.1,22.3c-2.7-0.2-5-1.4-6.8-3.2c-1.5-1.6-2.5-3.6-2.8-5.9c-0.1-0.6-0.1-2.1,0-2.7
	c0.4-2.3,1.4-4.4,3-6c1.6-1.6,3.6-2.6,5.9-3c0.6-0.1,1.7-0.1,2.4-0.1c2.6,0.2,5,1.4,6.8,3.3c2.6,2.8,3.5,6.8,2.3,10.4
	c-1.3,3.9-4.6,6.7-8.7,7.2C12.6,22.3,11.5,22.4,11.1,22.3z M12.7,20.6c3.1-0.3,5.7-2.2,7-4.9c0.4-0.8,0.6-1.5,0.8-2.4
	c0.1-0.5,0.1-0.6,0.1-1.4c0-0.6,0-1,0-1.2c-0.2-1.1-0.4-1.9-0.9-2.8c-1.1-2.2-3.2-3.9-5.6-4.5c-2.4-0.6-5-0.2-7,1.2
	C5.2,5.8,3.9,7.6,3.4,9.7c-0.6,2.3-0.2,4.7,1.1,6.7c0.7,1.1,1.7,2.2,2.9,2.9c1.1,0.7,2.5,1.1,3.8,1.3C11.4,20.6,12.4,20.6,12.7,20.6
	z"/>
<image style="overflow:visible;" width="1185" height="1044" xlink:href="img-logo-pivx.png"  transform="matrix(1.494610e-02 -5.059798e-05 5.691219e-05 1.680827e-02 3.0014 3.086)">
</image>
</svg>
